<svg width="207" height="69" viewBox="0 0 207 69" fill="none" xmlns="http://www.w3.org/2000/svg">
<g filter="url(#filter0_i)">
<g filter="url(#filter1_i)">
<rect x="2" y="0.999634" width="205" height="67" fill="black"/>
</g>
<rect x="3.5" y="2.49963" width="202" height="64" stroke="black" stroke-width="3"/>
<path d="M30.0909 27.9996H28.0167V19.8434C28.0167 19.1754 28.0577 18.358 28.1397 17.3912H28.1046C27.9756 17.942 27.8614 18.3375 27.7618 18.5778L24.0001 27.9996H22.5587L18.7881 18.6481C18.6827 18.3727 18.5714 17.9537 18.4542 17.3912H18.419C18.4659 17.8951 18.4893 18.7184 18.4893 19.861V27.9996H16.5557V15.3961H19.5001L22.8135 23.7897C23.0655 24.4342 23.2296 24.9147 23.3057 25.2311H23.3497C23.5665 24.569 23.7422 24.0768 23.877 23.7545L27.252 15.3961H30.0909V27.9996ZM34.002 17.11C33.668 17.11 33.3809 17.0016 33.1407 16.7848C32.9063 16.568 32.7891 16.2926 32.7891 15.9586C32.7891 15.6246 32.9063 15.3463 33.1407 15.1237C33.3809 14.901 33.668 14.7897 34.002 14.7897C34.3477 14.7897 34.6407 14.901 34.8809 15.1237C35.1212 15.3463 35.2413 15.6246 35.2413 15.9586C35.2413 16.275 35.1212 16.5475 34.8809 16.776C34.6407 16.9987 34.3477 17.11 34.002 17.11ZM35.0128 27.9996H32.9737V18.9996H35.0128V27.9996ZM44.127 27.5865C43.4063 28.0026 42.5538 28.2106 41.5694 28.2106C40.2335 28.2106 39.1553 27.7946 38.335 26.9625C37.5147 26.1246 37.1046 25.0406 37.1046 23.7106C37.1046 22.2281 37.544 21.0387 38.4229 20.1422C39.3077 19.2399 40.4883 18.7887 41.9649 18.7887C42.7852 18.7887 43.5089 18.9323 44.1358 19.2194V21.1178C43.5089 20.649 42.8409 20.4147 42.1319 20.4147C41.2706 20.4147 40.5645 20.7076 40.0137 21.2936C39.463 21.8737 39.1876 22.6354 39.1876 23.5787C39.1876 24.5104 39.4454 25.2457 39.961 25.7848C40.4825 26.3239 41.1797 26.5934 42.0528 26.5934C42.7852 26.5934 43.4766 26.3326 44.127 25.8112V27.5865ZM51.378 20.942C51.1319 20.7487 50.7774 20.652 50.3145 20.652C49.711 20.652 49.2071 20.9244 48.8028 21.4694C48.3985 22.0143 48.1964 22.7555 48.1964 23.693V27.9996H46.1573V18.9996H48.1964V20.8541H48.2315C48.4307 20.2213 48.7354 19.7291 49.1456 19.3776C49.5616 19.0201 50.0245 18.8414 50.5342 18.8414C50.9034 18.8414 51.1846 18.8971 51.378 19.0084V20.942ZM56.6514 28.2106C55.2628 28.2106 54.1524 27.7916 53.3204 26.9537C52.4942 26.11 52.0811 24.9938 52.0811 23.6051C52.0811 22.0934 52.5118 20.9127 53.3731 20.0631C54.2403 19.2135 55.4063 18.7887 56.8712 18.7887C58.2774 18.7887 59.3731 19.2018 60.1583 20.028C60.9434 20.8541 61.336 21.9996 61.336 23.4645C61.336 24.9 60.9112 26.0514 60.0616 26.9186C59.2178 27.7799 58.0811 28.2106 56.6514 28.2106ZM56.7481 20.4147C55.9512 20.4147 55.3214 20.693 54.8585 21.2496C54.3956 21.8063 54.1641 22.5739 54.1641 23.5524C54.1641 24.4957 54.3985 25.2399 54.8672 25.7848C55.336 26.3239 55.963 26.5934 56.7481 26.5934C57.5508 26.5934 58.1661 26.3268 58.5938 25.7936C59.0274 25.2604 59.2442 24.5016 59.2442 23.5172C59.2442 22.527 59.0274 21.7623 58.5938 21.2233C58.1661 20.6842 57.5508 20.4147 56.7481 20.4147ZM62.8565 27.7184V25.8287C63.6182 26.4088 64.459 26.6989 65.379 26.6989C66.6094 26.6989 67.2247 26.3356 67.2247 25.609C67.2247 25.4039 67.1719 25.2311 67.0665 25.0905C66.961 24.944 66.8174 24.8151 66.6358 24.7037C66.46 24.5924 66.2491 24.4928 66.003 24.4049C65.7628 24.317 65.4932 24.2174 65.1944 24.1061C64.8253 23.9596 64.4913 23.8043 64.1924 23.6403C63.8995 23.4762 63.6534 23.2916 63.4542 23.0865C63.2608 22.8756 63.1143 22.6383 63.0147 22.3746C62.9151 22.111 62.8653 21.8033 62.8653 21.4518C62.8653 21.0182 62.9678 20.6373 63.1729 20.3092C63.378 19.9752 63.6534 19.6969 63.9991 19.4742C64.3448 19.2457 64.7374 19.0758 65.1768 18.9645C65.6163 18.8473 66.0704 18.7887 66.5391 18.7887C67.3712 18.7887 68.1153 18.9147 68.7715 19.1666V20.9508C68.1387 20.5172 67.4122 20.3004 66.5919 20.3004C66.334 20.3004 66.0997 20.3268 65.8887 20.3795C65.6837 20.4323 65.5079 20.5055 65.3614 20.5992C65.2149 20.693 65.1006 20.8073 65.0186 20.942C64.9366 21.0709 64.8956 21.2145 64.8956 21.3727C64.8956 21.566 64.9366 21.7301 65.0186 21.8649C65.1006 21.9996 65.2208 22.1198 65.379 22.2252C65.543 22.3248 65.7364 22.4186 65.959 22.5065C66.1876 22.5885 66.4483 22.6793 66.7413 22.7789C67.128 22.9371 67.4737 23.0983 67.7784 23.2623C68.0889 23.4264 68.3526 23.6139 68.5694 23.8248C68.7862 24.0299 68.9532 24.2701 69.0704 24.5455C69.1876 24.8151 69.2462 25.1373 69.2462 25.5123C69.2462 25.9694 69.1407 26.3678 68.9297 26.7076C68.7188 27.0475 68.4376 27.3287 68.086 27.5514C67.7344 27.774 67.3272 27.9381 66.8643 28.0436C66.4073 28.1549 65.9239 28.2106 65.4141 28.2106C64.4297 28.2106 63.5772 28.0465 62.8565 27.7184ZM75.1788 28.2106C73.7901 28.2106 72.6797 27.7916 71.8477 26.9537C71.0215 26.11 70.6085 24.9938 70.6085 23.6051C70.6085 22.0934 71.0391 20.9127 71.9005 20.0631C72.7676 19.2135 73.9337 18.7887 75.3985 18.7887C76.8047 18.7887 77.9005 19.2018 78.6856 20.028C79.4708 20.8541 79.8633 21.9996 79.8633 23.4645C79.8633 24.9 79.4385 26.0514 78.5889 26.9186C77.7452 27.7799 76.6085 28.2106 75.1788 28.2106ZM75.2755 20.4147C74.4786 20.4147 73.8487 20.693 73.3858 21.2496C72.9229 21.8063 72.6915 22.5739 72.6915 23.5524C72.6915 24.4957 72.9258 25.2399 73.3946 25.7848C73.8633 26.3239 74.4903 26.5934 75.2755 26.5934C76.0782 26.5934 76.6934 26.3268 77.1212 25.7936C77.5547 25.2604 77.7715 24.5016 77.7715 23.5172C77.7715 22.527 77.5547 21.7623 77.1212 21.2233C76.6934 20.6842 76.0782 20.4147 75.2755 20.4147ZM86.7364 16.3365C86.461 16.1783 86.1475 16.0992 85.796 16.0992C84.8057 16.0992 84.3106 16.6588 84.3106 17.778V18.9996H86.4024V20.5992H84.3194V27.9996H82.2803V20.5992H80.7422V18.9996H82.2803V17.5406C82.2803 16.5914 82.5909 15.8444 83.212 15.2994C83.8331 14.7487 84.6094 14.4733 85.5411 14.4733C86.045 14.4733 86.4434 14.5289 86.7364 14.6403V16.3365ZM92.9327 27.903C92.5342 28.1022 92.0098 28.2018 91.3594 28.2018C89.6133 28.2018 88.7403 27.3639 88.7403 25.6881V20.5992H87.2374V18.9996H88.7403V16.9166L90.7794 16.3365V18.9996H92.9327V20.5992H90.7794V25.0992C90.7794 25.6324 90.876 26.0133 91.0694 26.2418C91.2628 26.4703 91.585 26.5846 92.0362 26.5846C92.3819 26.5846 92.6807 26.485 92.9327 26.2858V27.903ZM106.855 27.9996H99.876V15.3961H101.968V26.233H106.855V27.9996ZM116.074 24.0533H109.94C109.963 24.8854 110.218 25.527 110.704 25.9781C111.196 26.4293 111.87 26.6549 112.726 26.6549C113.687 26.6549 114.568 26.3678 115.371 25.7936V27.4371C114.551 27.9528 113.467 28.2106 112.119 28.2106C110.795 28.2106 109.755 27.8033 108.999 26.9889C108.249 26.1686 107.874 25.0172 107.874 23.5348C107.874 22.1344 108.287 20.9948 109.113 20.1158C109.945 19.2311 110.977 18.7887 112.207 18.7887C113.438 18.7887 114.39 19.1842 115.064 19.9752C115.737 20.7662 116.074 21.8649 116.074 23.2711V24.0533ZM114.106 22.6119C114.1 21.8795 113.927 21.3112 113.587 20.9069C113.247 20.4967 112.778 20.2916 112.181 20.2916C111.595 20.2916 111.097 20.5055 110.687 20.9332C110.282 21.361 110.033 21.9205 109.94 22.6119H114.106ZM124.925 27.9996H122.947V26.5934H122.912C122.291 27.6715 121.38 28.2106 120.179 28.2106C119.294 28.2106 118.6 27.9703 118.096 27.4899C117.598 27.0094 117.349 26.3737 117.349 25.5826C117.349 23.8834 118.327 22.8932 120.284 22.6119L122.956 22.234C122.956 20.9508 122.347 20.3092 121.128 20.3092C120.056 20.3092 119.089 20.6783 118.228 21.4166V19.6324C119.177 19.0699 120.273 18.7887 121.515 18.7887C123.788 18.7887 124.925 19.9078 124.925 22.1461V27.9996ZM122.956 23.5787L121.066 23.8424C120.481 23.9186 120.038 24.0621 119.739 24.2731C119.446 24.4781 119.3 24.8414 119.3 25.3629C119.3 25.7438 119.435 26.0573 119.704 26.3033C119.98 26.5436 120.346 26.6637 120.803 26.6637C121.424 26.6637 121.937 26.4469 122.341 26.0133C122.751 25.5739 122.956 25.0231 122.956 24.361V23.5787ZM132.642 20.942C132.396 20.7487 132.041 20.652 131.578 20.652C130.975 20.652 130.471 20.9244 130.066 21.4694C129.662 22.0143 129.46 22.7555 129.46 23.693V27.9996H127.421V18.9996H129.46V20.8541H129.495C129.694 20.2213 129.999 19.7291 130.409 19.3776C130.825 19.0201 131.288 18.8414 131.798 18.8414C132.167 18.8414 132.448 18.8971 132.642 19.0084V20.942ZM142.099 27.9996H140.06V22.9283C140.06 21.2467 139.465 20.4059 138.275 20.4059C137.654 20.4059 137.142 20.6403 136.737 21.109C136.333 21.5719 136.131 22.1578 136.131 22.8668V27.9996H134.083V18.9996H136.131V20.4938H136.166C136.84 19.3571 137.813 18.7887 139.084 18.7887C140.063 18.7887 140.81 19.108 141.325 19.7467C141.841 20.3795 142.099 21.2965 142.099 22.4977V27.9996ZM15.9756 51.4987V49.3453C16.169 49.5211 16.3975 49.6793 16.6612 49.8199C16.9307 49.9606 17.2149 50.0807 17.5137 50.1803C17.8126 50.274 18.1114 50.3473 18.4102 50.4C18.709 50.4528 18.9844 50.4791 19.2364 50.4791C20.1153 50.4791 20.7686 50.3326 21.1964 50.0397C21.6299 49.7467 21.8467 49.3219 21.8467 48.7653C21.8467 48.4664 21.7735 48.2086 21.627 47.9918C21.4864 47.7692 21.2872 47.567 21.0294 47.3854C20.7715 47.2037 20.4669 47.0309 20.1153 46.8668C19.7696 46.6969 19.3975 46.5211 18.9991 46.3395C18.5714 46.111 18.1729 45.8795 17.8038 45.6451C17.4346 45.4108 17.1124 45.153 16.837 44.8717C16.5674 44.5846 16.3536 44.2623 16.1954 43.9049C16.043 43.5475 15.9669 43.1285 15.9669 42.6481C15.9669 42.0563 16.0987 41.5436 16.3624 41.11C16.6319 40.6705 16.9835 40.3102 17.4171 40.0289C17.8565 39.7418 18.3546 39.5309 18.9112 39.3961C19.4678 39.2555 20.0362 39.1852 20.6163 39.1852C21.9346 39.1852 22.8956 39.3346 23.4991 39.6334V41.6989C22.7842 41.1832 21.8643 40.9254 20.7393 40.9254C20.4288 40.9254 20.1182 40.9547 19.8077 41.0133C19.503 41.0719 19.2276 41.1686 18.9815 41.3033C18.7413 41.4381 18.545 41.611 18.3926 41.8219C18.2403 42.0328 18.1641 42.2877 18.1641 42.5865C18.1641 42.8678 18.2227 43.111 18.3399 43.316C18.4571 43.5211 18.627 43.7086 18.8497 43.8785C19.0782 44.0485 19.3536 44.2155 19.6758 44.3795C20.004 44.5377 20.3819 44.7106 20.8096 44.8981C21.2491 45.1266 21.6622 45.3668 22.0489 45.6188C22.4415 45.8707 22.7842 46.149 23.0772 46.4537C23.376 46.7584 23.6104 47.0983 23.7803 47.4733C23.9561 47.8424 24.044 48.2643 24.044 48.7389C24.044 49.3776 23.9151 49.9166 23.6573 50.3561C23.3995 50.7955 23.0508 51.153 22.6114 51.4283C22.1778 51.7037 21.6768 51.903 21.1085 52.026C20.5401 52.149 19.9395 52.2106 19.3067 52.2106C19.0958 52.2106 18.835 52.193 18.5245 52.1578C18.2198 52.1285 17.9063 52.0817 17.584 52.0172C17.2618 51.9586 16.9571 51.8854 16.67 51.7975C16.3829 51.7096 16.1514 51.61 15.9756 51.4987ZM30.3546 51.903C29.9561 52.1022 29.4317 52.2018 28.7813 52.2018C27.0352 52.2018 26.1622 51.3639 26.1622 49.6881V44.5992H24.6592V42.9996H26.1622V40.9166L28.2012 40.3365V42.9996H30.3546V44.5992H28.2012V49.0992C28.2012 49.6324 28.2979 50.0133 28.4913 50.2418C28.6846 50.4703 29.0069 50.5846 29.4581 50.5846C29.8038 50.5846 30.1026 50.485 30.3546 50.2858V51.903ZM39.961 51.9996H37.9219V50.5758H37.8868C37.295 51.6656 36.3751 52.2106 35.127 52.2106C33.0001 52.2106 31.9366 50.9332 31.9366 48.3785V42.9996H33.9756V48.1676C33.9756 49.7848 34.5997 50.5934 35.8477 50.5934C36.4512 50.5934 36.9464 50.3707 37.3331 49.9254C37.7256 49.4801 37.9219 48.8971 37.9219 48.1764V42.9996H39.961V51.9996ZM50.8067 51.9996H48.7676V50.4703H48.7325C48.0762 51.6305 47.0655 52.2106 45.7003 52.2106C44.5928 52.2106 43.7051 51.8092 43.0372 51.0065C42.3751 50.1979 42.044 49.0992 42.044 47.7106C42.044 46.2223 42.4102 45.0299 43.1426 44.1334C43.8809 43.2369 44.8624 42.7887 46.087 42.7887C47.2999 42.7887 48.1817 43.275 48.7325 44.2477H48.7676V38.6754H50.8067V51.9996ZM48.794 47.8864V46.7086C48.794 46.0699 48.586 45.528 48.17 45.0826C47.754 44.6373 47.2237 44.4147 46.5792 44.4147C45.8174 44.4147 45.2169 44.6989 44.7774 45.2672C44.3438 45.8356 44.127 46.6237 44.127 47.6315C44.127 48.5455 44.335 49.2692 44.751 49.8024C45.1729 50.3297 45.7383 50.5934 46.4473 50.5934C47.1446 50.5934 47.71 50.3385 48.1436 49.8287C48.5772 49.3131 48.794 48.6656 48.794 47.8864ZM61.0899 48.0533H54.9551C54.9786 48.8854 55.2335 49.527 55.7198 49.9781C56.212 50.4293 56.8858 50.6549 57.7413 50.6549C58.7022 50.6549 59.584 50.3678 60.3868 49.7936V51.4371C59.5665 51.9528 58.4825 52.2106 57.1348 52.2106C55.8106 52.2106 54.7706 51.8033 54.0147 50.9889C53.2647 50.1686 52.8897 49.0172 52.8897 47.5348C52.8897 46.1344 53.3028 44.9948 54.129 44.1158C54.961 43.2311 55.9922 42.7887 57.2227 42.7887C58.4532 42.7887 59.4053 43.1842 60.0792 43.9752C60.753 44.7662 61.0899 45.8649 61.0899 47.2711V48.0533ZM59.1212 46.6119C59.1153 45.8795 58.9424 45.3112 58.6026 44.9069C58.2628 44.4967 57.794 44.2916 57.1964 44.2916C56.6104 44.2916 56.1124 44.5055 55.7022 44.9332C55.2979 45.361 55.0489 45.9205 54.9551 46.6119H59.1212ZM71.0479 51.9996H69.0089V46.9283C69.0089 45.2467 68.4141 44.4059 67.2247 44.4059C66.6036 44.4059 66.0909 44.6403 65.6866 45.109C65.2823 45.5719 65.0801 46.1578 65.0801 46.8668V51.9996H63.0323V42.9996H65.0801V44.4938H65.1153C65.7891 43.3571 66.7618 42.7887 68.0333 42.7887C69.0118 42.7887 69.7589 43.108 70.2745 43.7467C70.7901 44.3795 71.0479 45.2965 71.0479 46.4977V51.9996ZM78.2901 51.903C77.8917 52.1022 77.3672 52.2018 76.7169 52.2018C74.9708 52.2018 74.0977 51.3639 74.0977 49.6881V44.5992H72.5948V42.9996H74.0977V40.9166L76.1368 40.3365V42.9996H78.2901V44.5992H76.1368V49.0992C76.1368 49.6324 76.2335 50.0133 76.4268 50.2418C76.6202 50.4703 76.9424 50.5846 77.3936 50.5846C77.7393 50.5846 78.0381 50.485 78.2901 50.2858V51.903ZM95.587 51.9996H93.293L92.1592 48.7916H87.2022L86.1124 51.9996H83.8272L88.5469 39.3961H90.9024L95.587 51.9996ZM91.6055 47.0865L89.8565 42.0592C89.8038 41.8951 89.7481 41.6315 89.6895 41.2682H89.6544C89.6016 41.6022 89.543 41.8658 89.4786 42.0592L87.7471 47.0865H91.6055ZM110.555 51.9996H108.516V47.0953C108.516 46.152 108.381 45.4694 108.111 45.0475C107.848 44.6256 107.399 44.4147 106.767 44.4147C106.233 44.4147 105.779 44.6813 105.404 45.2145C105.035 45.7477 104.851 46.3864 104.851 47.1305V51.9996H102.803V46.9283C102.803 45.2526 102.211 44.4147 101.027 44.4147C100.477 44.4147 100.023 44.6666 99.6651 45.1705C99.3135 45.6744 99.1378 46.3278 99.1378 47.1305V51.9996H97.0987V42.9996H99.1378V44.4235H99.1729C99.8233 43.3336 100.77 42.7887 102.012 42.7887C102.633 42.7887 103.175 42.9615 103.638 43.3073C104.107 43.6471 104.426 44.0953 104.596 44.652C105.264 43.4098 106.26 42.7887 107.584 42.7887C109.565 42.7887 110.555 44.0104 110.555 46.4537V51.9996ZM115.116 50.6989H115.081V51.9996H113.042V38.6754H115.081V44.5817H115.116C115.814 43.3864 116.833 42.7887 118.175 42.7887C119.312 42.7887 120.199 43.193 120.838 44.0016C121.482 44.8043 121.805 45.8824 121.805 47.236C121.805 48.7418 121.444 49.9489 120.724 50.8571C120.003 51.7594 119.019 52.2106 117.771 52.2106C116.599 52.2106 115.714 51.7067 115.116 50.6989ZM115.064 47.1217V48.2379C115.064 48.8942 115.272 49.4508 115.688 49.9078C116.109 50.3649 116.643 50.5934 117.287 50.5934C118.043 50.5934 118.635 50.3004 119.063 49.7145C119.496 49.1227 119.713 48.2994 119.713 47.2448C119.713 46.36 119.511 45.6686 119.107 45.1705C118.708 44.6666 118.166 44.4147 117.481 44.4147C116.754 44.4147 116.168 44.6725 115.723 45.1881C115.283 45.7037 115.064 46.3483 115.064 47.1217ZM130.585 51.9996H128.607V50.5934H128.572C127.951 51.6715 127.04 52.2106 125.839 52.2106C124.954 52.2106 124.26 51.9703 123.756 51.4899C123.258 51.0094 123.009 50.3737 123.009 49.5826C123.009 47.8834 123.987 46.8932 125.944 46.6119L128.616 46.234C128.616 44.9508 128.007 44.3092 126.788 44.3092C125.716 44.3092 124.749 44.6783 123.888 45.4166V43.6324C124.837 43.0699 125.933 42.7887 127.175 42.7887C129.448 42.7887 130.585 43.9078 130.585 46.1461V51.9996ZM128.616 47.5787L126.727 47.8424C126.141 47.9186 125.698 48.0621 125.399 48.2731C125.107 48.4781 124.96 48.8414 124.96 49.3629C124.96 49.7438 125.095 50.0573 125.364 50.3033C125.64 50.5436 126.006 50.6637 126.463 50.6637C127.084 50.6637 127.597 50.4469 128.001 50.0133C128.411 49.5739 128.616 49.0231 128.616 48.361V47.5787ZM132.519 51.7184V49.8287C133.28 50.4088 134.121 50.6989 135.041 50.6989C136.272 50.6989 136.887 50.3356 136.887 49.609C136.887 49.4039 136.834 49.2311 136.729 49.0905C136.623 48.944 136.48 48.8151 136.298 48.7037C136.122 48.5924 135.911 48.4928 135.665 48.4049C135.425 48.317 135.155 48.2174 134.857 48.1061C134.487 47.9596 134.153 47.8043 133.855 47.6403C133.562 47.4762 133.315 47.2916 133.116 47.0865C132.923 46.8756 132.776 46.6383 132.677 46.3746C132.577 46.111 132.527 45.8033 132.527 45.4518C132.527 45.0182 132.63 44.6373 132.835 44.3092C133.04 43.9752 133.315 43.6969 133.661 43.4742C134.007 43.2457 134.399 43.0758 134.839 42.9645C135.278 42.8473 135.732 42.7887 136.201 42.7887C137.033 42.7887 137.777 42.9147 138.434 43.1666V44.9508C137.801 44.5172 137.074 44.3004 136.254 44.3004C135.996 44.3004 135.762 44.3268 135.551 44.3795C135.346 44.4323 135.17 44.5055 135.023 44.5992C134.877 44.693 134.763 44.8073 134.681 44.942C134.599 45.0709 134.558 45.2145 134.558 45.3727C134.558 45.566 134.599 45.7301 134.681 45.8649C134.763 45.9996 134.883 46.1198 135.041 46.2252C135.205 46.3248 135.398 46.4186 135.621 46.5065C135.85 46.5885 136.11 46.6793 136.403 46.7789C136.79 46.9371 137.136 47.0983 137.44 47.2623C137.751 47.4264 138.015 47.6139 138.232 47.8248C138.448 48.0299 138.615 48.2701 138.732 48.5455C138.85 48.8151 138.908 49.1373 138.908 49.5123C138.908 49.9694 138.803 50.3678 138.592 50.7076C138.381 51.0475 138.1 51.3287 137.748 51.5514C137.397 51.774 136.989 51.9381 136.526 52.0436C136.069 52.1549 135.586 52.2106 135.076 52.2106C134.092 52.2106 133.239 52.0465 132.519 51.7184ZM140.288 51.7184V49.8287C141.05 50.4088 141.891 50.6989 142.811 50.6989C144.041 50.6989 144.656 50.3356 144.656 49.609C144.656 49.4039 144.604 49.2311 144.498 49.0905C144.393 48.944 144.249 48.8151 144.067 48.7037C143.892 48.5924 143.681 48.4928 143.435 48.4049C143.194 48.317 142.925 48.2174 142.626 48.1061C142.257 47.9596 141.923 47.8043 141.624 47.6403C141.331 47.4762 141.085 47.2916 140.886 47.0865C140.692 46.8756 140.546 46.6383 140.446 46.3746C140.347 46.111 140.297 45.8033 140.297 45.4518C140.297 45.0182 140.399 44.6373 140.605 44.3092C140.81 43.9752 141.085 43.6969 141.431 43.4742C141.776 43.2457 142.169 43.0758 142.608 42.9645C143.048 42.8473 143.502 42.7887 143.971 42.7887C144.803 42.7887 145.547 42.9147 146.203 43.1666V44.9508C145.57 44.5172 144.844 44.3004 144.023 44.3004C143.766 44.3004 143.531 44.3268 143.32 44.3795C143.115 44.4323 142.94 44.5055 142.793 44.5992C142.647 44.693 142.532 44.8073 142.45 44.942C142.368 45.0709 142.327 45.2145 142.327 45.3727C142.327 45.566 142.368 45.7301 142.45 45.8649C142.532 45.9996 142.652 46.1198 142.811 46.2252C142.975 46.3248 143.168 46.4186 143.391 46.5065C143.619 46.5885 143.88 46.6793 144.173 46.7789C144.56 46.9371 144.905 47.0983 145.21 47.2623C145.521 47.4264 145.784 47.6139 146.001 47.8248C146.218 48.0299 146.385 48.2701 146.502 48.5455C146.619 48.8151 146.678 49.1373 146.678 49.5123C146.678 49.9694 146.572 50.3678 146.361 50.7076C146.15 51.0475 145.869 51.3287 145.518 51.5514C145.166 51.774 144.759 51.9381 144.296 52.0436C143.839 52.1549 143.356 52.2106 142.846 52.2106C141.861 52.2106 141.009 52.0465 140.288 51.7184ZM155.528 51.9996H153.551V50.5934H153.516C152.895 51.6715 151.983 52.2106 150.782 52.2106C149.898 52.2106 149.203 51.9703 148.699 51.4899C148.201 51.0094 147.952 50.3737 147.952 49.5826C147.952 47.8834 148.931 46.8932 150.888 46.6119L153.56 46.234C153.56 44.9508 152.95 44.3092 151.732 44.3092C150.659 44.3092 149.692 44.6783 148.831 45.4166V43.6324C149.78 43.0699 150.876 42.7887 152.118 42.7887C154.392 42.7887 155.528 43.9078 155.528 46.1461V51.9996ZM153.56 47.5787L151.67 47.8424C151.084 47.9186 150.642 48.0621 150.343 48.2731C150.05 48.4781 149.903 48.8414 149.903 49.3629C149.903 49.7438 150.038 50.0573 150.308 50.3033C150.583 50.5436 150.949 50.6637 151.406 50.6637C152.027 50.6637 152.54 50.4469 152.944 50.0133C153.355 49.5739 153.56 49.0231 153.56 48.361V47.5787ZM166.207 51.9996H164.168V50.4703H164.133C163.477 51.6305 162.466 52.2106 161.101 52.2106C159.993 52.2106 159.106 51.8092 158.438 51.0065C157.775 50.1979 157.444 49.0992 157.444 47.7106C157.444 46.2223 157.811 45.0299 158.543 44.1334C159.281 43.2369 160.263 42.7887 161.487 42.7887C162.7 42.7887 163.582 43.275 164.133 44.2477H164.168V38.6754H166.207V51.9996ZM164.194 47.8864V46.7086C164.194 46.0699 163.986 45.528 163.57 45.0826C163.154 44.6373 162.624 44.4147 161.98 44.4147C161.218 44.4147 160.617 44.6989 160.178 45.2672C159.744 45.8356 159.527 46.6237 159.527 47.6315C159.527 48.5455 159.735 49.2692 160.151 49.8024C160.573 50.3297 161.139 50.5934 161.848 50.5934C162.545 50.5934 163.11 50.3385 163.544 49.8287C163.978 49.3131 164.194 48.6656 164.194 47.8864ZM172.86 52.2106C171.472 52.2106 170.361 51.7916 169.529 50.9537C168.703 50.11 168.29 48.9938 168.29 47.6051C168.29 46.0934 168.721 44.9127 169.582 44.0631C170.449 43.2135 171.615 42.7887 173.08 42.7887C174.486 42.7887 175.582 43.2018 176.367 44.028C177.152 44.8541 177.545 45.9996 177.545 47.4645C177.545 48.9 177.12 50.0514 176.271 50.9186C175.427 51.7799 174.29 52.2106 172.86 52.2106ZM172.957 44.4147C172.16 44.4147 171.53 44.693 171.067 45.2496C170.605 45.8063 170.373 46.5739 170.373 47.5524C170.373 48.4957 170.607 49.2399 171.076 49.7848C171.545 50.3239 172.172 50.5934 172.957 50.5934C173.76 50.5934 174.375 50.3268 174.803 49.7936C175.236 49.2604 175.453 48.5016 175.453 47.5172C175.453 46.527 175.236 45.7623 174.803 45.2233C174.375 44.6842 173.76 44.4147 172.957 44.4147ZM184.849 44.942C184.603 44.7487 184.248 44.652 183.785 44.652C183.182 44.652 182.678 44.9244 182.273 45.4694C181.869 46.0143 181.667 46.7555 181.667 47.693V51.9996H179.628V42.9996H181.667V44.8541H181.702C181.901 44.2213 182.206 43.7291 182.616 43.3776C183.032 43.0201 183.495 42.8414 184.005 42.8414C184.374 42.8414 184.655 42.8971 184.849 43.0084V44.942ZM185.851 51.7184V49.8287C186.612 50.4088 187.453 50.6989 188.373 50.6989C189.604 50.6989 190.219 50.3356 190.219 49.609C190.219 49.4039 190.166 49.2311 190.061 49.0905C189.955 48.944 189.812 48.8151 189.63 48.7037C189.454 48.5924 189.243 48.4928 188.997 48.4049C188.757 48.317 188.487 48.2174 188.189 48.1061C187.819 47.9596 187.485 47.8043 187.187 47.6403C186.894 47.4762 186.648 47.2916 186.448 47.0865C186.255 46.8756 186.108 46.6383 186.009 46.3746C185.909 46.111 185.859 45.8033 185.859 45.4518C185.859 45.0182 185.962 44.6373 186.167 44.3092C186.372 43.9752 186.648 43.6969 186.993 43.4742C187.339 43.2457 187.732 43.0758 188.171 42.9645C188.61 42.8473 189.065 42.7887 189.533 42.7887C190.365 42.7887 191.109 42.9147 191.766 43.1666V44.9508C191.133 44.5172 190.406 44.3004 189.586 44.3004C189.328 44.3004 189.094 44.3268 188.883 44.3795C188.678 44.4323 188.502 44.5055 188.356 44.5992C188.209 44.693 188.095 44.8073 188.013 44.942C187.931 45.0709 187.89 45.2145 187.89 45.3727C187.89 45.566 187.931 45.7301 188.013 45.8649C188.095 45.9996 188.215 46.1198 188.373 46.2252C188.537 46.3248 188.731 46.4186 188.953 46.5065C189.182 46.5885 189.442 46.6793 189.735 46.7789C190.122 46.9371 190.468 47.0983 190.773 47.2623C191.083 47.4264 191.347 47.6139 191.564 47.8248C191.78 48.0299 191.947 48.2701 192.065 48.5455C192.182 48.8151 192.24 49.1373 192.24 49.5123C192.24 49.9694 192.135 50.3678 191.924 50.7076C191.713 51.0475 191.432 51.3287 191.08 51.5514C190.729 51.774 190.321 51.9381 189.858 52.0436C189.401 52.1549 188.918 52.2106 188.408 52.2106C187.424 52.2106 186.571 52.0465 185.851 51.7184Z" fill="white"/>
<path d="M107.046 0.995529L107.04 3.06974L98.8834 3.04491C98.2154 3.04288 97.3982 2.99937 96.4316 2.9144L96.4315 2.94956C96.9819 3.08014 97.3771 3.1956 97.617 3.29594L107.027 7.08632L107.023 8.52772L97.66 12.2697C97.3843 12.3744 96.965 12.4844 96.4021 12.5999L96.402 12.6351C96.9061 12.5897 97.7294 12.5688 98.872 12.5723L107.011 12.597L107.005 14.5306L94.4013 14.4923L94.4102 11.5479L102.814 8.26002C103.459 8.01003 103.94 7.84743 104.257 7.77223L104.257 7.72828C103.595 7.50947 103.104 7.33219 102.782 7.19645L94.4338 3.79602L94.4425 0.957164L107.046 0.995529Z" fill="black"/>
<path d="M16.1273 39.9995L14.0531 40.0035L14.0375 31.8472C14.0362 31.1793 14.0756 30.3618 14.1558 29.3949L14.1207 29.3949C13.9928 29.9459 13.8793 30.3417 13.7802 30.5821L10.0365 40.0112L8.59511 40.0139L4.80669 30.6696C4.70069 30.3944 4.58856 29.9757 4.4703 29.4134L4.43514 29.4135C4.48298 29.9173 4.508 30.7405 4.51018 31.8831L4.52578 40.0217L2.59219 40.0254L2.56804 27.4219L5.51237 27.4163L8.84192 35.8035C9.09511 36.4475 9.26009 36.9277 9.33687 37.2439L9.38082 37.2439C9.59634 36.5813 9.77118 36.0888 9.90533 35.7663L13.2643 27.4014L16.1032 27.396L16.1273 39.9995Z" fill="#0E0303"/>
<path d="M206.127 53.9997L204.053 54.0037L204.037 45.8475C204.036 45.1795 204.076 44.362 204.156 43.3951L204.121 43.3952C203.993 43.9462 203.879 44.3419 203.78 44.5823L200.036 54.0114L198.595 54.0142L194.807 44.6698C194.701 44.3947 194.588 43.9759 194.47 43.4137L194.435 43.4137C194.483 43.9175 194.508 44.7407 194.51 45.8833L194.526 54.022L192.592 54.0257L192.568 41.4222L195.512 41.4165L198.842 49.8037C199.095 50.4478 199.26 50.9279 199.337 51.2442L199.381 51.2441C199.596 50.5816 199.771 50.0891 199.905 49.7665L203.264 41.4017L206.103 41.3962L206.127 53.9997Z" fill="black"/>
<path d="M106.999 52.9626L107.012 55.0368L98.8555 55.0854C98.1876 55.0894 97.37 55.0532 96.4027 54.977L96.4029 55.0121C96.9544 55.1377 97.3506 55.2496 97.5914 55.3478L107.036 59.0533L107.044 60.4947L97.7152 64.3209C97.4405 64.428 97.0222 64.5418 96.4604 64.6623L96.4606 64.6975C96.9642 64.6476 97.7873 64.6193 98.9299 64.6125L107.068 64.564L107.08 66.4975L94.4766 66.5726L94.4591 63.6283L102.833 60.2649C103.476 60.0091 103.955 59.8422 104.271 59.7641L104.271 59.7202C103.608 59.5074 103.114 59.3345 102.791 59.2017L94.4129 55.8765L94.396 53.0377L106.999 52.9626Z" fill="#0E0303"/>
</g>
<defs>
<filter id="filter0_i" x="2" y="0.957153" width="205" height="71.0425" filterUnits="userSpaceOnUse" color-interpolation-filters="sRGB">
<feFlood flood-opacity="0" result="BackgroundImageFix"/>
<feBlend mode="normal" in="SourceGraphic" in2="BackgroundImageFix" result="shape"/>
<feColorMatrix in="SourceAlpha" type="matrix" values="0 0 0 0 0 0 0 0 0 0 0 0 0 0 0 0 0 0 127 0" result="hardAlpha"/>
<feOffset dy="4"/>
<feGaussianBlur stdDeviation="2"/>
<feComposite in2="hardAlpha" operator="arithmetic" k2="-1" k3="1"/>
<feColorMatrix type="matrix" values="0 0 0 0 0 0 0 0 0 0 0 0 0 0 0 0 0 0 0.25 0"/>
<feBlend mode="normal" in2="shape" result="effect1_innerShadow"/>
</filter>
<filter id="filter1_i" x="2" y="0.999634" width="205" height="71" filterUnits="userSpaceOnUse" color-interpolation-filters="sRGB">
<feFlood flood-opacity="0" result="BackgroundImageFix"/>
<feBlend mode="normal" in="SourceGraphic" in2="BackgroundImageFix" result="shape"/>
<feColorMatrix in="SourceAlpha" type="matrix" values="0 0 0 0 0 0 0 0 0 0 0 0 0 0 0 0 0 0 127 0" result="hardAlpha"/>
<feOffset dy="4"/>
<feGaussianBlur stdDeviation="2"/>
<feComposite in2="hardAlpha" operator="arithmetic" k2="-1" k3="1"/>
<feColorMatrix type="matrix" values="0 0 0 0 0 0 0 0 0 0 0 0 0 0 0 0 0 0 0.25 0"/>
<feBlend mode="normal" in2="shape" result="effect1_innerShadow"/>
</filter>
</defs>
</svg>
